<?xml version="1.0" encoding="UTF-8"?>
<svg width="22px" height="22px" viewBox="0 0 22 22" version="1.1" xmlns="http://www.w3.org/2000/svg" xmlns:xlink="http://www.w3.org/1999/xlink">
    <!-- Generator: Sketch 62 (91390) - https://sketch.com -->
    <title>Cross</title>
    <desc>Created with Sketch.</desc>
    <g id="Mobile" stroke="none" stroke-width="1" fill="none" fill-rule="evenodd">
        <g id="Contact" transform="translate(-321.000000, -32.000000)" fill="#000000">
            <g id="Cross-Button" transform="translate(302.000000, 13.000000)">
                <g id="Cross" transform="translate(19.000000, 19.000000)">
                    <rect id="Rectangle-Copy" x="0" y="0" width="2" height="2"></rect>
                    <rect id="Rectangle-Copy-2" x="2" y="2" width="2" height="2"></rect>
                    <rect id="Rectangle-Copy-3" x="4" y="4" width="2" height="2"></rect>
                    <rect id="Rectangle-Copy-4" x="6" y="6" width="2" height="2"></rect>
                    <rect id="Rectangle-Copy-5" x="8" y="8" width="2" height="2"></rect>
                    <rect id="Rectangle-Copy-6" x="10" y="10" width="2" height="2"></rect>
                    <rect id="Rectangle-Copy-7" x="12" y="12" width="2" height="2"></rect>
                    <rect id="Rectangle-Copy-8" x="14" y="14" width="2" height="2"></rect>
                    <rect id="Rectangle-Copy-9" x="16" y="16" width="2" height="2"></rect>
                    <rect id="Rectangle-Copy-10" x="18" y="18" width="2" height="2"></rect>
                    <rect id="Rectangle-Copy-11" x="20" y="20" width="2" height="2"></rect>
                    <rect id="Rectangle-Copy-15" x="0" y="20" width="2" height="2"></rect>
                    <rect id="Rectangle-Copy-16" x="2" y="18" width="2" height="2"></rect>
                    <rect id="Rectangle-Copy-17" x="4" y="16" width="2" height="2"></rect>
                    <rect id="Rectangle-Copy-18" x="6" y="14" width="2" height="2"></rect>
                    <rect id="Rectangle-Copy-19" x="8" y="12" width="2" height="2"></rect>
                    <rect id="Rectangle-Copy-20" x="12" y="8" width="2" height="2"></rect>
                    <rect id="Rectangle-Copy-21" x="14" y="6" width="2" height="2"></rect>
                    <rect id="Rectangle-Copy-22" x="16" y="4" width="2" height="2"></rect>
                    <rect id="Rectangle-Copy-23" x="18" y="2" width="2" height="2"></rect>
                    <rect id="Rectangle-Copy-24" x="20" y="0" width="2" height="2"></rect>
                </g>
            </g>
        </g>
    </g>
</svg>