<?xml version="1.0" encoding="UTF-8"?>
<svg width="195px" height="32px" viewBox="0 0 195 32" version="1.1" xmlns="http://www.w3.org/2000/svg" xmlns:xlink="http://www.w3.org/1999/xlink">
    <!-- Generator: Sketch 62 (91390) - https://sketch.com -->
    <title>logo-apollo30_dark</title>
    <desc>Created with Sketch.</desc>
    <g id="Mobile" stroke="none" stroke-width="1" fill="none" fill-rule="evenodd">
        <g id="Contact" transform="translate(-90.000000, -101.000000)" fill="#000000" fill-rule="nonzero">
            <g id="logo-apollo30_dark" transform="translate(90.000000, 101.000000)">
                <g id="Group-2" transform="translate(0.000000, 0.503200)">
                    <path d="M19.5827126,24.3685185 C15.9874415,24.6800993 12.3969944,25.0133119 8.80675706,25.3683642 C8.30276475,27.0543948 7.80045031,28.7422974 7.30316951,30.4318639 C4.86710179,30.6766774 2.43438984,30.9333468 1.42108547e-14,31.2 C2.79555287,22.4559783 5.6986996,13.7236044 8.71447382,5.00641439 C11.1354406,4.77304079 13.5564075,4.54819512 15.9790522,4.33333333 C20.5808397,12.3458266 25.0767112,20.3918076 29.4666667,28.4710682 C26.9769069,28.6593062 24.4902931,28.8591922 22.0022112,29.06927 C21.1989276,27.5009662 20.392498,25.9347424 19.5827126,24.3685185 M16.997104,19.3266506 C15.6564803,16.7524691 14.3039017,14.1799517 12.9448213,11.6107622 C12.0880553,14.3850376 11.239469,17.1607689 10.4045155,19.9381643 C12.6021149,19.7266304 14.7980365,19.5234165 16.997104,19.3266506" id="Shape"></path>
                    <path d="M47.8193547,2.58052536 C49.617902,3.26589495 51.0293048,4.31205344 52.0533509,5.71404376 C53.0740048,7.11754274 53.6294915,8.79928455 53.7193871,10.7588381 C53.8145831,12.7183917 53.4221381,14.4395746 52.5509568,15.9243265 C51.6780794,17.4108026 50.4008839,18.58994 48.7176743,19.4654027 C47.0312844,20.3406498 45.0219914,20.8482113 42.6817385,20.9932596 C41.1821363,21.0846422 39.6791419,21.1831372 38.1776315,21.2833563 C38.3237118,23.5502486 38.4714883,25.8169253 38.6192647,28.0838176 C36.1990811,28.2461079 33.7788975,28.4170193 31.36041,28.6 C30.7285968,19.9333075 30.0967837,11.2663996 29.4666667,2.60143129 C33.4850407,2.297541 37.5068071,2.02145344 41.5317537,1.77273755 C43.9216188,1.62402528 46.0174151,1.89687997 47.8193547,2.58052536 M45.254787,14.0285683 C45.9868846,13.3276809 46.3197526,12.3694566 46.253391,11.154111 C46.1855453,9.94048957 45.7473044,9.0201977 44.9371842,8.39539064 C44.1236718,7.77036806 42.9552415,7.50441017 41.4299852,7.59945671 C40.0544134,7.68588225 38.6803258,7.77381646 37.3047541,7.8671388 C37.4711881,10.4066702 37.635926,12.9464172 37.7989677,15.4859486 C39.1643626,15.3943504 40.5265772,15.3064162 41.8902759,15.2199907 C43.4000549,15.1266683 44.5209932,14.7313954 45.254787,14.0285683" id="Shape"></path>
                    <path d="M63.7364956,25.3706811 C61.5545295,24.2966517 59.8083291,22.770804 58.4962206,20.7850239 C57.1824385,18.7973222 56.4634148,16.529476 56.3479359,13.974012 C56.2372686,11.4185479 56.7552502,9.09240949 57.9148511,6.99709127 C59.0711049,4.90177306 60.7302777,3.23072848 62.8819096,1.99249855 C65.0368888,0.754055091 67.4970921,0.0887120193 70.2554069,0.00842671917 C73.0153952,-0.0735667788 75.5107443,0.442949553 77.7278561,1.55135645 C79.9483152,2.66147154 81.6961892,4.23151891 82.9748255,6.2531711 C84.2501146,8.27653148 84.8986376,10.568506 84.9321098,13.1273864 C84.9639083,15.6862668 84.3758444,17.9919069 83.1758677,20.0528476 C81.9775645,22.1122937 80.3236217,23.7406333 78.2054619,24.9412829 C76.0906494,26.1419325 73.6975995,26.7782362 71.0179444,26.8585215 C68.3416364,26.9373121 65.916788,26.4447105 63.7364956,25.3706811 M74.3241564,19.7910663 C75.3530068,19.149638 76.1624053,18.2637239 76.7456576,17.129694 C77.3322571,15.9973723 77.6119588,14.7059748 77.5801602,13.2555012 C77.5517089,11.8050277 77.2182426,10.5255875 76.5797612,9.42081053 C75.9396063,8.31582003 75.0816731,7.46748626 74.0074262,6.88093382 C72.929832,6.29245965 71.7367589,6.01722627 70.4279977,6.05651482 C69.1192364,6.09580337 67.9410166,6.44128639 66.900451,7.09125568 C65.8596762,7.74122497 65.0536249,8.63738828 64.4789498,9.77846446 C63.9007183,10.9193271 63.6427736,12.2158493 63.6946554,13.6661093 C63.7465372,15.118291 64.0984133,16.3908984 64.7488191,17.4856397 C65.397342,18.5820893 66.2552752,19.4201738 67.3178069,19.9981853 C68.3853594,20.5779049 69.5583492,20.8482273 70.8487008,20.8089387 C72.1340315,20.7713584 73.2936325,20.4324946 74.3241564,19.7910663" id="Shape"></path>
                    <path d="M120.194901,24.8969671 C118.088229,23.6828165 116.437456,22.0461576 115.252414,19.9801587 C114.065907,17.9124519 113.487614,15.6020002 113.536153,13.045388 C113.58302,10.4885622 114.243329,8.19860619 115.530472,6.18405976 C116.819289,4.16929984 118.577394,2.60971298 120.80144,1.51341202 C123.02716,0.417111058 125.525916,-0.0856715647 128.284737,0.0118960185 C131.043349,0.109463602 133.502144,0.788380264 135.648987,2.03839821 C137.792482,3.29033761 139.441791,4.96969562 140.588126,7.06985386 C141.739483,9.17172007 142.243921,11.5009593 142.113156,14.0558636 C141.987413,16.6109814 141.256805,18.8751044 139.934303,20.8522891 C138.608663,22.8309682 136.853905,24.3463615 134.665009,25.4065816 C132.476112,26.4685098 130.049329,26.9490888 127.374406,26.8551507 C124.69488,26.7595045 122.306594,26.1096233 120.194901,24.8969671 M131.112184,20.0162395 C132.179852,19.4434303 133.039551,18.6122911 133.696513,17.5194061 C134.351801,16.426521 134.708736,15.155794 134.772549,13.7074385 C134.832806,12.2571615 134.576507,10.959107 134.00993,9.81498293 C133.440005,8.67085891 132.633867,7.76969311 131.599884,7.11276652 C130.562554,6.45776139 129.389228,6.10549331 128.076978,6.05937821 C126.768076,6.01304962 125.572991,6.28162735 124.497164,6.86318992 C123.414432,7.44283103 122.554733,8.28613947 121.909488,9.38756433 C121.262569,10.4889892 120.924045,11.7648401 120.8822,13.2149036 C120.847051,14.6668886 121.118623,15.9581112 121.698381,17.0954034 C122.278349,18.2326956 123.081139,19.1219056 124.105079,19.7683709 C125.135714,20.4165442 126.290628,20.7619804 127.579445,20.8063875 C128.864705,20.8525026 130.039495,20.5890488 131.112184,20.0162395" id="Shape"></path>
                    <path d="M162.458233,15.8600678 C163.473399,17.2581094 163.910185,18.8904751 163.776524,20.7554561 C163.664022,22.2782426 163.168645,23.657487 162.288564,24.8961795 C161.405227,26.1367946 160.13576,27.093102 158.478537,27.7725779 C156.817856,28.4518403 154.80685,28.7120106 152.440638,28.5562929 C150.705091,28.4415873 148.998838,28.1130635 147.325137,27.5690128 C145.64818,27.026671 144.205993,26.3183584 143,25.4404438 C143.935418,23.6540693 144.877345,21.8711124 145.824156,20.0881556 C146.754691,20.8325673 147.822141,21.4244654 149.018369,21.8676948 C150.211342,22.3107105 151.399228,22.569172 152.579181,22.647992 C153.783546,22.7265985 154.751514,22.558919 155.489799,22.1398269 C156.228083,21.7239389 156.623977,21.0856886 156.679516,20.225076 C156.787136,18.5568248 155.568123,17.629354 153.030818,17.4633833 C152.044947,17.3967387 151.062128,17.3352206 150.07463,17.2734889 C150.162719,15.7385269 150.248978,14.2020696 150.337068,12.6673212 C151.917797,11.1018137 153.513174,9.54121911 155.110383,7.98404221 C151.803871,7.76167991 148.494104,7.55619237 145.180878,7.3731333 C145.278733,5.49277277 145.373129,3.61390747 145.466101,1.73333333 C151.572356,2.07211009 157.676983,2.4794539 163.780186,2.95173348 C163.672567,4.47281122 163.566778,5.9958114 163.455903,7.51688914 C161.585068,9.29642834 159.719115,11.0828029 157.86781,12.8725951 C159.91279,13.4647068 161.444694,14.4622399 162.458233,15.8600678" id="Path"></path>
                    <path d="M172.402287,28.7306184 C170.366535,27.3954083 168.819815,25.6656462 167.755021,23.5313138 C166.688555,21.4003918 166.248426,19.0644136 166.44592,16.5169846 C166.64007,13.9712608 167.431925,11.7309897 168.831518,9.79979506 C170.232782,7.87051881 172.079191,6.42254913 174.361131,5.46292018 C176.646206,4.50499647 179.169109,4.15499409 181.9196,4.41802877 C184.663403,4.6827687 187.082439,5.50746981 189.149957,6.88360587 C191.219147,8.26166033 192.766076,10.0338405 193.793879,12.1973754 C194.818338,14.360697 195.186784,16.7135145 194.912174,19.2509253 C194.635892,21.7900412 193.775488,24.0028152 192.33577,25.8930838 C190.902739,27.7848446 189.059465,29.190183 186.818069,30.115707 C184.571448,31.041231 182.122318,31.3724756 179.452078,31.116262 C176.783302,30.8598351 174.441382,30.0677469 172.402287,28.7306184 M183.580218,24.526753 C184.67845,24.0213597 185.587339,23.2444056 186.30563,22.1943984 C187.023922,21.1458834 187.452347,19.9012647 187.598012,18.4584107 C187.742005,17.0189673 187.566246,15.709336 187.064048,14.5346325 C186.560178,13.359929 185.813464,12.413942 184.814083,11.6968847 C183.819718,10.9798275 182.666314,10.5579915 181.363691,10.4332951 C180.057935,10.3068935 178.85082,10.5034235 177.740885,11.0171298 C176.63095,11.5310492 175.72018,12.3199401 175.012129,13.3769814 C174.304077,14.4355148 173.89049,15.6871677 173.769904,17.1300216 C173.644302,18.5745808 173.843468,19.8790964 174.354234,21.0469789 C174.868136,22.2148614 175.616522,23.1506169 176.605871,23.8574427 C177.591876,24.5642684 178.72689,24.9792834 180.007568,25.1022745 C181.2918,25.2252656 182.481986,25.0340646 183.580218,24.526753" id="Shape"></path>
                    <rect id="Rectangle" x="88.4" y="-5.5067062e-14" width="7.8" height="26.8666667"></rect>
                    <rect id="Rectangle" x="102.266667" y="-5.5067062e-14" width="7.8" height="26.8666667"></rect>
                </g>
            </g>
        </g>
    </g>
</svg>