<?xml version="1.0" encoding="UTF-8"?>
<svg width="195px" height="56px" viewBox="0 0 195 56" version="1.1" xmlns="http://www.w3.org/2000/svg" xmlns:xlink="http://www.w3.org/1999/xlink">
    <!-- Generator: Sketch 62 (91390) - https://sketch.com -->
    <title>logo-apollo30_light</title>
    <desc>Created with Sketch.</desc>
    <g id="Mobile" stroke="none" stroke-width="1" fill="none" fill-rule="evenodd">
        <g id="Home-V2-(Button)" transform="translate(-92.000000, -170.000000)" fill="#FFFFFF" fill-rule="nonzero">
            <g id="Hero-Comp" transform="translate(75.000000, 170.000000)">
                <g id="logo-apollo30_light" transform="translate(17.000000, 0.000000)">
                    <path d="M19.5827126,24.8717187 C15.9874415,25.1832995 12.3969944,25.516512 8.80675706,25.8715644 C8.30276475,27.557595 7.80045031,29.2454975 7.30316951,30.9350641 C4.86710179,31.1798776 2.43438984,31.4365469 0,31.7032002 C2.79555287,22.9591784 5.6986996,14.2268046 8.71447382,5.50961454 C11.1354406,5.27624095 13.5564075,5.05139527 15.9790522,4.83653349 C20.5808397,12.8490268 25.0767112,20.8950077 29.4666667,28.9742683 C26.9769069,29.1625064 24.4902931,29.3623923 22.0022112,29.5724702 C21.1989276,28.0041663 20.392498,26.4379425 19.5827126,24.8717187 M16.997104,19.8298507 C15.6564803,17.2556693 14.3039017,14.6831518 12.9448213,12.1139624 C12.0880553,14.8882377 11.239469,17.6639691 10.4045155,20.4413644 C12.6021149,20.2298306 14.7980365,20.0266167 16.997104,19.8298507" id="Shape"></path>
                    <path d="M47.8193547,3.08372552 C49.617902,3.76909511 51.0293048,4.8152536 52.0533509,6.21724391 C53.0740048,7.6207429 53.6294915,9.3024847 53.7193871,11.2620383 C53.8145831,13.2215918 53.4221381,14.9427747 52.5509568,16.4275266 C51.6780794,17.9140028 50.4008839,19.0931402 48.7176743,19.9686029 C47.0312844,20.84385 45.0219914,21.3514114 42.6817385,21.4964598 C41.1821363,21.5878424 39.6791419,21.6863373 38.1776315,21.7865565 C38.3237118,24.0534487 38.4714883,26.3201255 38.6192647,28.5870177 C36.1990811,28.7493081 33.7788975,28.9202194 31.36041,29.1032002 C30.7285968,20.4365077 30.0967837,11.7695997 29.4666667,3.10463145 C33.4850407,2.80074116 37.5068071,2.52465359 41.5317537,2.27593771 C43.9216188,2.12722544 46.0174151,2.40008013 47.8193547,3.08372552 M45.254787,14.5317685 C45.9868846,13.8308811 46.3197526,12.8726568 46.253391,11.6573112 C46.1855453,10.4436897 45.7473044,9.52339786 44.9371842,8.8985908 C44.1236718,8.27356821 42.9552415,8.00761033 41.4299852,8.10265687 C40.0544134,8.1890824 38.6803258,8.27701661 37.3047541,8.37033895 C37.4711881,10.9098704 37.635926,13.4496173 37.7989677,15.9891487 C39.1643626,15.8975506 40.5265772,15.8096164 41.8902759,15.7231908 C43.4000549,15.6298685 44.5209932,15.2345956 45.254787,14.5317685" id="Shape"></path>
                    <path d="M63.7364956,25.8738813 C61.5545295,24.7998519 59.8083291,23.2740041 58.4962206,21.2882241 C57.1824385,19.3005223 56.4634148,17.0326761 56.3479359,14.4772121 C56.2372686,11.9217481 56.7552502,9.59560965 57.9148511,7.50029143 C59.0711049,5.40497321 60.7302777,3.73392864 62.8819096,2.49569871 C65.0368888,1.25725525 67.4970921,0.591912176 70.2554069,0.511626876 C73.0153952,0.429633378 75.5107443,0.94614971 77.7278561,2.05455661 C79.9483152,3.1646717 81.6961892,4.73471907 82.9748255,6.75637126 C84.2501146,8.77973164 84.8986376,11.0717061 84.9321098,13.6305866 C84.9639083,16.189467 84.3758444,18.495107 83.1758677,20.5560478 C81.9775645,22.6154938 80.3236217,24.2438335 78.2054619,25.4444831 C76.0906494,26.6451326 73.6975995,27.2814363 71.0179444,27.3617216 C68.3416364,27.4405123 65.916788,26.9479107 63.7364956,25.8738813 M74.3241564,20.2942665 C75.3530068,19.6528382 76.1624053,18.766924 76.7456576,17.6328942 C77.3322571,16.5005725 77.6119588,15.2091749 77.5801602,13.7587014 C77.5517089,12.3082279 77.2182426,11.0287877 76.5797612,9.92401069 C75.9396063,8.81902019 75.0816731,7.97068642 74.0074262,7.38413397 C72.929832,6.79565981 71.7367589,6.52042642 70.4279977,6.55971498 C69.1192364,6.59900353 67.9410166,6.94448655 66.900451,7.59445584 C65.8596762,8.24442513 65.0536249,9.14058844 64.4789498,10.2816646 C63.9007183,11.4225273 63.6427736,12.7190495 63.6946554,14.1693095 C63.7465372,15.6214912 64.0984133,16.8940986 64.7488191,17.9888399 C65.397342,19.0852894 66.2552752,19.923374 67.3178069,20.5013855 C68.3853594,21.0811051 69.5583492,21.3514274 70.8487008,21.3121389 C72.1340315,21.2745585 73.2936325,20.9356948 74.3241564,20.2942665" id="Shape"></path>
                    <path d="M120.194901,25.4001673 C118.088229,24.1860166 116.437456,22.5493578 115.252414,20.4833589 C114.065907,18.415652 113.487614,16.1052004 113.536153,13.5485881 C113.58302,10.9917624 114.243329,8.70180634 115.530472,6.68725992 C116.819289,4.6725 118.577394,3.11291314 120.80144,2.01661218 C123.02716,0.920311215 125.525916,0.417528592 128.284737,0.515096175 C131.043349,0.612663759 133.502144,1.29158042 135.648987,2.54159836 C137.792482,3.79353777 139.441791,5.47289578 140.588126,7.57305402 C141.739483,9.67492023 142.243921,12.0041595 142.113156,14.5590638 C141.987413,17.1141816 141.256805,19.3783046 139.934303,21.3554893 C138.608663,23.3341684 136.853905,24.8495616 134.665009,25.9097818 C132.476112,26.9717099 130.049329,27.452289 127.374406,27.3583508 C124.69488,27.2627047 122.306594,26.6128235 120.194901,25.4001673 M131.112184,20.5194397 C132.179852,19.9466304 133.039551,19.1154913 133.696513,18.0226062 C134.351801,16.9297212 134.708736,15.6589942 134.772549,14.2106386 C134.832806,12.7603616 134.576507,11.4623071 134.00993,10.3181831 C133.440005,9.17405907 132.633867,8.27289327 131.599884,7.61596667 C130.562554,6.96096154 129.389228,6.60869346 128.076978,6.56257837 C126.768076,6.51624978 125.572991,6.7848275 124.497164,7.36639008 C123.414432,7.94603119 122.554733,8.78933962 121.909488,9.89076449 C121.262569,10.9921893 120.924045,12.2680403 120.8822,13.7181038 C120.847051,15.1700888 121.118623,16.4613114 121.698381,17.5986036 C122.278349,18.7358957 123.081139,19.6251057 124.105079,20.271571 C125.135714,20.9197443 126.290628,21.2651805 127.579445,21.3095877 C128.864705,21.3557028 130.039495,21.0922489 131.112184,20.5194397" id="Shape"></path>
                    <path d="M162.458233,16.363268 C163.473399,17.7613095 163.910185,19.3936752 163.776524,21.2586562 C163.664022,22.7814428 163.168645,24.1606871 162.288564,25.3993797 C161.405227,26.6399947 160.13576,27.5963021 158.478537,28.2757781 C156.817856,28.9550404 154.80685,29.2152107 152.440638,29.059493 C150.705091,28.9447874 148.998838,28.6162637 147.325137,28.072213 C145.64818,27.5298711 144.205993,26.8215586 143,25.943644 C143.935418,24.1572695 144.877345,22.3743126 145.824156,20.5913557 C146.754691,21.3357674 147.822141,21.9276655 149.018369,22.3708949 C150.211342,22.8139107 151.399228,23.0723721 152.579181,23.1511922 C153.783546,23.2297987 154.751514,23.0621191 155.489799,22.6430271 C156.228083,22.2271391 156.623977,21.5888888 156.679516,20.7282762 C156.787136,19.060025 155.568123,18.1325542 153.030818,17.9665835 C152.044947,17.8999388 151.062128,17.8384207 150.07463,17.776689 C150.162719,16.241727 150.248978,14.7052697 150.337068,13.1705213 C151.917797,11.6050138 153.513174,10.0444193 155.110383,8.48724236 C151.803871,8.26488006 148.494104,8.05939252 145.180878,7.87633345 C145.278733,5.99597292 145.373129,4.11710763 145.466101,2.23653349 C151.572356,2.57531025 157.676983,2.98265406 163.780186,3.45493363 C163.672567,4.97601137 163.566778,6.49901155 163.455903,8.02008929 C161.585068,9.79962849 159.719115,11.586003 157.86781,13.3757953 C159.91279,13.967907 161.444694,14.96544 162.458233,16.363268" id="Path"></path>
                    <path d="M172.402287,29.2338186 C170.366535,27.8986085 168.819815,26.1688464 167.755021,24.0345139 C166.688555,21.903592 166.248426,19.5676138 166.44592,17.0201847 C166.64007,14.4744609 167.431925,12.2341899 168.831518,10.3029952 C170.232782,8.37371897 172.079191,6.92574929 174.361131,5.96612033 C176.646206,5.00819663 179.169109,4.65819424 181.9196,4.92122892 C184.663403,5.18596885 187.082439,6.01066997 189.149957,7.38680603 C191.219147,8.76486049 192.766076,10.5370407 193.793879,12.7005755 C194.818338,14.8638972 195.186784,17.2167147 194.912174,19.7541254 C194.635892,22.2932414 193.775488,24.5060153 192.33577,26.396284 C190.902739,28.2880448 189.059465,29.6933832 186.818069,30.6189072 C184.571448,31.5444311 182.122318,31.8756758 179.452078,31.6194621 C176.783302,31.3630353 174.441382,30.570947 172.402287,29.2338186 M183.580218,25.0299531 C184.67845,24.5245599 185.587339,23.7476058 186.30563,22.6975986 C187.023922,21.6490835 187.452347,20.4044648 187.598012,18.9616109 C187.742005,17.5221675 187.566246,16.2125361 187.064048,15.0378326 C186.560178,13.8631291 185.813464,12.9171421 184.814083,12.2000849 C183.819718,11.4830276 182.666314,11.0611916 181.363691,10.9364953 C180.057935,10.8100937 178.85082,11.0066236 177.740885,11.5203299 C176.63095,12.0342494 175.72018,12.8231403 175.012129,13.8801816 C174.304077,14.938715 173.89049,16.1903679 173.769904,17.6332218 C173.644302,19.077781 173.843468,20.3822966 174.354234,21.5501791 C174.868136,22.7180616 175.616522,23.6538171 176.605871,24.3606428 C177.591876,25.0674686 178.72689,25.4824836 180.007568,25.6054747 C181.2918,25.7284658 182.481986,25.5372647 183.580218,25.0299531" id="Shape"></path>
                    <path d="M56.3075221,52.5029851 L56.3982385,52.1049996 C56.5174479,52.092959 56.6584459,52.0757581 56.8245848,52.053397 C56.9840195,52.0310358 57.109933,52.0067396 57.20044,51.9792182 C57.3213254,51.9396561 57.4118323,51.8966539 57.4723798,51.8534367 C57.5327177,51.8087144 57.5630962,51.7396958 57.5630962,51.6485311 C57.5630962,51.6158494 57.5413075,51.4212644 57.494378,51.0596158 C57.4508006,50.6996872 57.3835489,50.1933361 57.2963941,49.5405625 L54.3741936,49.5405625 C54.2432519,49.7471881 54.1056059,49.9901506 53.9612558,50.2640748 C53.8169056,50.5379989 53.7060765,50.7463446 53.627302,50.8908321 C53.5569077,51.0183336 53.489656,51.1630361 53.4242899,51.3214993 C53.3605998,51.4799624 53.3268692,51.5833828 53.3268692,51.6367055 C53.3268692,51.7693673 53.4326702,51.8742927 53.6390343,51.9536318 C53.8470746,52.034476 54.1056059,52.0845736 54.4194471,52.1052146 L54.3320827,52.5032002 L51.1333333,52.5032002 L51.2240498,52.1052146 C51.3248225,52.0966142 51.4555547,52.074253 51.6183415,52.0364111 C51.7828043,51.9985691 51.9187742,51.9450314 52.0262512,51.8813881 C52.1638971,51.802264 52.2948389,51.7022839 52.422219,51.5833828 C52.5514847,51.4662017 52.6874546,51.2888176 52.8318047,51.0512303 C53.5064165,49.9508036 54.24828,48.7261005 55.0571857,47.377551 C55.8644153,46.0290015 56.5759003,44.8492357 57.1901741,43.8365335 L57.6617739,43.8365335 L58.7694362,51.2374299 C58.7912249,51.3855726 58.8297741,51.511354 58.8852934,51.6145594 C58.9406032,51.7179797 59.0229394,51.8125846 59.1320924,51.9003091 C59.2091909,51.9555669 59.3149918,52.0037294 59.4492857,52.0415714 C59.5819034,52.0811334 59.6994367,52.1000544 59.8,52.1052146 L59.7126357,52.5032002 L56.3075221,52.5032002 L56.3075221,52.5029851 Z M57.2088202,49.0342114 L56.6852628,45.6980994 L54.6915964,49.0342114 L57.2088202,49.0342114 Z" id="Shape"></path>
                    <path d="M63.7681661,51.6493021 L63.7291809,51.6373847 C63.6528349,51.7022916 63.5437981,51.7908204 63.4087712,51.9068015 C63.2704956,52.0227827 63.124098,52.1232288 62.9728273,52.2102679 C62.7988152,52.3194392 62.6231787,52.4064782 62.4442935,52.4745773 C62.2637838,52.5409738 62.0670304,52.5752362 61.8505813,52.5752362 C61.3023518,52.5752362 60.879606,52.3707262 60.5803133,51.9631961 C60.2842694,51.5556659 60.134623,50.9949129 60.134623,50.2788089 C60.134623,49.7861549 60.2225428,49.3054183 60.3933061,48.8400039 C60.5640694,48.3745896 60.8016355,47.9604623 61.1025526,47.5991118 C61.3888502,47.2496786 61.7336256,46.9683444 62.1354575,46.7553221 C62.5372894,46.5422998 62.9600353,46.4365335 63.4008524,46.4365335 C63.6725305,46.4365335 63.9310106,46.4722855 64.1718254,46.545492 C64.4158891,46.6189112 64.6110181,46.7057375 64.7590401,46.8063964 L65.7984426,46.5250622 L65.8666667,46.6138038 L64.9119352,51.315404 C64.767162,52.0261877 64.5817792,52.6280129 64.3572082,53.1189644 C64.1328402,53.6099159 63.8725327,53.9985061 63.5764888,54.2849477 C63.272323,54.5799016 62.9372939,54.7878165 62.5730259,54.9140125 C62.2055091,55.0402085 61.7906821,55.1032002 61.328748,55.1032002 C61.0148359,55.1032002 60.7577772,55.0759605 60.5593993,55.0246735 C60.3577727,54.9735992 60.2032532,54.9055001 60.0877189,54.821866 C59.9754334,54.7382319 59.897463,54.6445957 59.8601022,54.5388294 C59.8178682,54.4330631 59.8,54.3343195 59.8,54.2370655 C59.8,54.0580927 59.8503559,53.9097645 59.9512707,53.7869734 C60.0554343,53.6658848 60.1969587,53.6062982 60.3725952,53.6062982 C60.5141196,53.6062982 60.6329027,53.6488601 60.7319901,53.7341967 C60.8312805,53.8193205 60.909251,53.911467 60.9695562,54.0104234 C61.0361559,54.1142744 61.0997099,54.2370655 61.1598121,54.3802863 C61.2199143,54.5235071 61.2656001,54.6309759 61.2964634,54.7024799 L61.4656023,54.7024799 C61.6753509,54.7024799 61.8982975,54.6531081 62.1356606,54.5524492 C62.3764754,54.4537056 62.5943459,54.29346 62.7910994,54.0700101 C62.992726,53.839963 63.1797331,53.5313892 63.3523239,53.1427991 C63.5273512,52.7556986 63.6672513,52.2579372 63.7681661,51.6493021 M64.5261441,47.8376712 C64.5261441,47.7270103 64.5082759,47.6110291 64.4774126,47.4950479 C64.4449249,47.3756618 64.3862441,47.2684058 64.296903,47.1694494 C64.2156838,47.0738979 64.1082714,46.998989 63.9813664,46.9428073 C63.8512127,46.8864128 63.6853225,46.8591731 63.4853203,46.8591731 C63.1957739,46.8591731 62.920847,46.9513197 62.6607426,47.1371023 C62.4004351,47.3211826 62.1679452,47.5750643 61.959618,47.8974707 C61.7661133,48.1992345 61.6099694,48.5656925 61.4879376,48.9953549 C61.3675302,49.4267197 61.307428,49.8580845 61.307428,50.2892366 C61.307428,50.5243911 61.3220474,50.7408183 61.3545351,50.9370287 C61.3853984,51.1347287 61.4424549,51.3068916 61.5204253,51.4535173 C61.6018475,51.6018455 61.7074324,51.7144218 61.8392106,51.7961406 C61.9693643,51.8780723 62.1368789,51.9206342 62.3466274,51.9206342 C62.611808,51.9206342 62.8751612,51.8389153 63.1370931,51.6786698 C63.3990249,51.5167217 63.6477587,51.3105093 63.882076,51.0615222 L64.5261441,47.8376712 Z" id="Shape"></path>
                    <path d="M71.9333333,47.6550841 C71.9333333,48.0678762 71.796269,48.4239042 71.5292859,48.7217072 C71.2603539,49.0159625 70.8667,49.2532449 70.3533042,49.427085 C69.9804372,49.5625259 69.5986925,49.6693761 69.2136998,49.7513919 C68.8287071,49.8334077 68.4053883,49.9018586 67.9422278,49.9552836 C67.9422278,50.5705067 68.0602374,51.0419411 68.29604,51.3679175 C68.5335748,51.6922244 68.8789423,51.8560473 69.3349573,51.8560473 C69.740737,51.8560473 70.0982303,51.7573362 70.407004,51.5634616 C70.7140454,51.369587 71.0193546,51.0786709 71.3192505,50.6909217 L71.6644014,50.9384301 C71.3417697,51.4132036 70.93599,51.7942746 70.4520425,52.0768431 C69.9680949,52.3610811 69.4633604,52.5032002 68.9413034,52.5032002 C68.2267499,52.5032002 67.6784926,52.3109951 67.3021611,51.9247069 C66.9240974,51.5386273 66.7333333,50.9901856 66.7333333,50.2797992 C66.7333333,49.7883303 66.8130169,49.3202349 66.9726005,48.8738434 C67.1339163,48.427452 67.3679867,48.0196685 67.6732959,47.6486147 C67.971676,47.2859086 68.3393462,46.9916533 68.7747908,46.7708575 C69.208503,46.5486009 69.6905018,46.4365335 70.2145076,46.4365335 C70.79741,46.4365335 71.2274412,46.5517313 71.5084989,46.7808747 C71.7910722,47.00814 71.9333333,47.2988474 71.9333333,47.6550841 M70.8162482,47.5110869 C70.8162482,47.3591593 70.7919967,47.2402051 70.7486904,47.1517198 C70.7053841,47.0646954 70.6462711,46.9995836 70.5787133,46.9561757 C70.5059588,46.9110983 70.427791,46.8810467 70.3481074,46.8691513 C70.2684239,46.8574646 70.1850593,46.8507864 70.1001791,46.8507864 C69.6162315,46.8507864 69.1686613,47.108312 68.7576848,47.6214848 C68.3467083,48.1346576 68.0881699,48.7749236 67.9770893,49.5406133 C68.2598792,49.5003358 68.5807787,49.4452412 68.9363231,49.3734513 C69.2918676,49.3016613 69.5885155,49.2096283 69.8225859,49.0908828 C70.1573433,48.9253903 70.4072205,48.7098118 70.5685363,48.4472777 C70.7346159,48.1832827 70.8162482,47.8723321 70.8162482,47.5110869" id="Shape"></path>
                    <path d="M78.8666667,51.7176903 L78.7822471,52.0962112 C78.4401152,52.2381301 78.1741026,52.3393502 77.9844117,52.4053541 C77.7947209,52.4694601 77.603208,52.5032002 77.4118975,52.5032002 C77.1070155,52.5032002 76.8784552,52.4203262 76.7292533,52.2566871 C76.5751927,52.0945242 76.5004905,51.8935602 76.5004905,51.6518972 C76.5004905,51.5639623 76.5069688,51.4694903 76.5231644,51.3646853 C76.5377404,51.2598804 76.5620338,51.1365184 76.5978665,50.9948103 L77.1574243,48.7903217 C77.1995328,48.6197237 77.231924,48.4659958 77.2564198,48.3274508 C77.2807132,48.1905928 77.2936697,48.0809378 77.2936697,47.9980638 C77.2936697,47.7344699 77.233746,47.5250709 77.1136962,47.3713429 C76.9936463,47.2178259 76.8152924,47.1400129 76.5786343,47.1400129 C76.350074,47.1400129 76.0937787,47.219302 75.8083314,47.378091 C75.5228841,47.5335059 75.2552519,47.7633598 75.0040178,48.0621699 L74.0359262,52.4017692 L72.9769369,52.4017692 L73.8284202,48.5705898 C73.8446157,48.4761178 73.8721483,48.3390489 73.9077786,48.1602268 C73.9450284,47.9811938 73.9644631,47.8359009 73.9644631,47.7260349 C73.9644631,47.5048269 73.9272133,47.3561599 73.8541307,47.281721 C73.78287,47.2072821 73.6385268,47.1701681 73.4227205,47.1701681 C73.338301,47.1701681 73.2314101,47.1836641 73.1016429,47.2140301 C72.9734953,47.2443961 72.8728802,47.2680141 72.8,47.288469 L72.8860391,46.9082612 C73.1828233,46.7714032 73.4439773,46.6701831 73.6725376,46.6024922 C73.8994783,46.5366992 74.0974694,46.5010613 74.2596278,46.5010613 C74.5596512,46.5010613 74.7768746,46.5870983 74.9050222,46.7543223 C75.0331698,46.9249203 75.1011913,47.1596243 75.1109087,47.4586453 L75.1432999,47.4586453 C75.5568948,47.1123883 75.9152223,46.8555424 76.2152457,46.6866314 C76.5168886,46.5210944 76.86064,46.4365335 77.2450829,46.4365335 C77.60503,46.4365335 77.8872382,46.5447124 78.0915051,46.7642334 C78.2941525,46.9837545 78.3963871,47.2692794 78.3963871,47.6239714 C78.3963871,47.6948254 78.3866698,47.8215614 78.3656155,48.0039683 C78.3445612,48.1848992 78.3121701,48.3637213 78.2650004,48.5412782 L77.7882426,50.4383109 C77.7542319,50.5650468 77.7218407,50.7103398 77.6892471,50.8741898 C77.6566534,51.0380397 77.6422798,51.1647757 77.6422798,51.2558738 C77.6422798,51.4787688 77.6876275,51.6324967 77.7833839,51.7136837 C77.8791404,51.7946597 78.033201,51.8336716 78.2488048,51.8336716 C78.3200654,51.8336716 78.4255392,51.8218626 78.5601651,51.7965576 C78.6929689,51.7716743 78.7952036,51.7446823 78.8666667,51.7176903" id="Path"></path>
                    <path d="M82.0532625,52.5032002 C81.3368073,52.5032002 80.7711848,52.304317 80.3550796,51.9082202 C79.9407282,51.5085757 79.7333333,50.9436474 79.7333333,50.2096788 C79.7333333,49.7232185 79.8122574,49.2567926 79.9685709,48.8087316 C80.1248844,48.3623402 80.3443372,47.9662434 80.6271484,47.6183544 C80.9117135,47.2706741 81.2681872,46.986436 81.7000773,46.7658489 C82.1321866,46.5467227 82.6096772,46.4365335 83.1402223,46.4365335 C83.7249181,46.4365335 84.1710584,46.5536095 84.474916,46.7908919 C84.7805276,47.0267135 84.9333333,47.3224296 84.9333333,47.6820053 C84.9333333,47.9493394 84.8666863,48.1868305 84.7314193,48.3890527 C84.5996599,48.5914836 84.4012536,48.6933251 84.135981,48.6933251 C83.9147744,48.6933251 83.7479377,48.6399001 83.6354709,48.5361803 C83.5265118,48.4293302 83.4721419,48.3139237 83.4721419,48.1851609 C83.4721419,48.0614068 83.5159886,47.8909057 83.6039012,47.6753272 C83.6935677,47.45954 83.7637225,47.2873694 83.8145847,47.1552676 C83.7707379,47.0498783 83.6705482,46.9730798 83.5159886,46.9246633 C83.3596751,46.8762468 83.1963461,46.8509951 83.0295094,46.8509951 C82.4711216,46.8509951 81.9934118,47.1602762 81.5876105,47.7788383 C81.1872901,48.3957308 80.9851568,49.1530729 80.9851568,50.0489862 C80.9851568,50.6007669 81.1151622,51.0419411 81.3732001,51.366248 C81.6347457,51.6922244 81.9879309,51.8543778 82.4303442,51.8543778 C82.825403,51.8543778 83.1818767,51.7539971 83.4892421,51.5517749 C83.8001152,51.3495526 84.0969574,51.0619755 84.3777956,50.6907131 L84.7272538,50.9365518 C84.4461964,51.3610307 84.0634147,51.7289541 83.5786894,52.0399047 C83.0946218,52.3479336 82.5853423,52.5032002 82.0532625,52.5032002" id="Path"></path>
                    <path d="M87.9500911,51.7709788 L87.8542458,52.1305464 C87.4677075,52.2692597 87.1587475,52.367708 86.9275913,52.420858 C86.6964351,52.4758199 86.4977535,52.5032002 86.3315465,52.5032002 C85.9973285,52.5032002 85.7427184,52.4258911 85.5765114,52.2678505 C85.4085003,52.113031 85.3237054,51.9195571 85.3237054,51.6906498 C85.3237054,51.6034758 85.3327262,51.5130806 85.3489635,51.4196655 C85.3633967,51.3244385 85.392263,51.206663 85.4283459,51.0633191 L86.0985862,48.6651279 C86.1328649,48.532857 86.1653396,48.392533 86.1944314,48.2409348 C86.2287102,48.0909472 86.2431434,47.9618974 86.2431434,47.8572081 C86.2431434,47.6476281 86.2034522,47.5071028 86.1256484,47.4362361 C86.0480701,47.3667788 85.8890797,47.3329561 85.6504814,47.3329561 C85.5582444,47.3329561 85.4337583,47.3474515 85.2801804,47.3716106 C85.1266025,47.3989909 85.0127158,47.4201301 84.9333333,47.439256 L85.0273744,47.0780778 C85.3525718,46.9458069 85.6507069,46.8491705 85.9107295,46.7861556 C86.1725562,46.7215301 86.3786799,46.689318 86.5304536,46.689318 C86.8736924,46.689318 87.1246942,46.7634058 87.2800763,46.9101722 C87.4372626,47.0569386 87.5148408,47.2536338 87.5148408,47.5020696 C87.5148408,47.5697151 87.5058201,47.6633315 87.4895828,47.7794964 C87.4697372,47.8956613 87.4480874,48.0134368 87.4138087,48.1296017 L86.7435684,50.5277929 C86.7002689,50.6745593 86.664186,50.8197151 86.6314858,50.960039 C86.6008153,51.1019736 86.5863822,51.2165279 86.5863822,51.3083324 C86.5863822,51.5211336 86.6368983,51.6679 86.7453725,51.747021 C86.8538468,51.8275513 87.0236621,51.8664071 87.2656432,51.8664071 C87.3450256,51.8664071 87.4589123,51.8567435 87.6088819,51.8390268 C87.7568219,51.8192969 87.8725128,51.7951378 87.9500911,51.7709788 M88.4,44.5588899 C88.4,44.7735031 88.3221962,44.958924 88.1670396,45.1201858 C88.0080493,45.2782265 87.8165843,45.3589581 87.5854281,45.3589581 C87.3705092,45.3589581 87.1862607,45.2832596 87.0272704,45.1298495 C86.8718883,44.9782513 86.79431,44.8041046 86.79431,44.60902 C86.79431,44.4026612 86.8721138,44.2220721 87.0272704,44.0672527 C87.1862607,43.9140439 87.3705092,43.8365335 87.5854281,43.8365335 C87.825605,43.8365335 88.0209038,43.9092121 88.1724521,44.0541665 C88.3240003,44.1975104 88.4,44.3670266 88.4,44.5588899" id="Shape"></path>
                    <path d="M92.9062508,51.5684538 L92.8679897,51.5684538 C92.779615,51.6385911 92.67814,51.7273064 92.5598218,51.834391 C92.4415036,51.9431456 92.3032231,52.0433417 92.1449803,52.1420766 C91.9933916,52.2389329 91.8301582,52.3243083 91.6502896,52.3961155 C91.4720845,52.4679228 91.2789077,52.5032002 91.0705513,52.5032002 C90.5074482,52.5032002 90.0645347,52.3007205 89.7463856,51.8961786 C89.4249095,51.4899668 89.2666667,50.9363832 89.2666667,50.2339667 C89.2666667,49.7507291 89.3550414,49.280851 89.53491,48.8226625 C89.7114516,48.3678138 89.9597326,47.9582621 90.2728912,47.5954687 C90.571078,47.2477046 90.9274881,46.9684079 91.337339,46.7542387 C91.7488535,46.5419482 92.1734682,46.4365335 92.6066084,46.4365335 C92.8815059,46.4365335 93.1462142,46.4734808 93.3944953,46.546958 C93.6444399,46.6206439 93.8442708,46.7058106 93.9875418,46.797657 L95.0536532,46.5233701 L95.1251848,46.6104155 L94.2372785,50.3861395 C94.2056715,50.5065836 94.1740646,50.6554166 94.1405861,50.8292986 C94.1073156,51.0015107 94.0923439,51.1303045 94.0923439,51.2121313 C94.0923439,51.4344415 94.1372591,51.5849444 94.2322879,51.6636401 C94.3256532,51.7387872 94.4820246,51.7788657 94.7036892,51.7788657 C94.7768843,51.7788657 94.8852214,51.7671761 95.0201748,51.743797 C95.1567918,51.7204179 95.2601382,51.6953689 95.3333333,51.66698 L95.2466221,52.041463 C94.8952025,52.1819463 94.6352768,52.2838124 94.4653893,52.3474787 C94.2938383,52.4092663 94.0856898,52.4395339 93.8423993,52.4395339 C93.5608478,52.4395339 93.3377275,52.359377 93.1744941,52.1938446 C93.0129243,52.0299822 92.9212225,51.8210315 92.9062508,51.5684538 M93.7459149,47.8697556 C93.7459149,47.7409618 93.7326067,47.6190565 93.7059903,47.5002824 C93.6777104,47.3831781 93.6209426,47.2746323 93.5361028,47.1725575 C93.4579172,47.0757013 93.3529072,46.9986755 93.2179537,46.9385578 C93.0813368,46.8799013 92.9081223,46.8515124 92.7033008,46.8515124 C92.4200857,46.8515124 92.1437326,46.9450288 91.8754893,47.1324791 C91.6072459,47.3197206 91.3658269,47.5706284 91.1524799,47.8883336 C90.9509854,48.1826597 90.7877521,48.5421133 90.6577892,48.9635633 C90.5294899,49.3848045 90.4646124,49.8129342 90.4646124,50.2460737 C90.4646124,50.483622 90.4795841,50.6942426 90.507864,50.8781442 C90.5328169,51.0622546 90.5877132,51.2292482 90.6627798,51.383091 C90.7359749,51.5285841 90.8426484,51.6456883 90.9825924,51.7275152 C91.1225364,51.8078808 91.299078,51.8496292 91.5122171,51.8496292 C91.7286832,51.8496292 91.9553385,51.7895115 92.1934304,51.6657275 C92.4317304,51.5419436 92.7014293,51.3263132 92.9996161,51.0186276 L93.7459149,47.8697556 Z" id="Shape"></path>
                    <path d="M106.6,43.8365335 L106.121906,45.923991 L105.664647,45.923991 C105.638604,45.4926747 105.549843,45.1309185 105.395109,44.8376322 C105.238638,44.5441277 105.028346,44.3781865 104.76228,44.3363196 C104.642269,44.3206195 104.494479,44.3101528 104.31891,44.3014305 C104.146814,44.2927083 103.950411,44.2892194 103.731439,44.2892194 L102.345987,44.2892194 L101.542799,47.7757292 L102.516347,47.7757292 C102.818872,47.7757292 103.051734,47.7460735 103.218622,47.686762 C103.382037,47.6274506 103.531564,47.5295431 103.663729,47.3897687 C103.785476,47.2691833 103.900063,47.0997532 104.016602,46.8867117 C104.129669,46.6736702 104.211268,46.4937734 104.258144,46.3470212 L104.715404,46.3470212 L103.938258,49.7303902 L103.482734,49.7303902 C103.482734,49.6850343 103.484471,49.6307382 103.491415,49.5679379 C103.49836,49.5051375 103.500096,49.4371038 103.500096,49.3636187 C103.500096,49.2116331 103.489679,49.0685878 103.470581,48.9305579 C103.449748,48.7910016 103.421969,48.6896052 103.383557,48.6248423 C103.301957,48.4641344 103.176737,48.362738 103.020266,48.3138933 C102.865531,48.2633042 102.656976,48.2406262 102.404799,48.2406262 L101.434723,48.2406262 L100.826201,50.8904522 C100.801895,50.9901042 100.779325,51.0965159 100.765435,51.2118679 C100.74981,51.3254755 100.741129,51.4161871 100.741129,51.48095 C100.741129,51.7062026 100.820992,51.8546993 100.982672,51.9281844 C101.139143,52.0014515 101.493752,52.0383031 102.043028,52.0383031 C102.724469,52.0383031 103.186937,52.0156252 103.431952,51.965036 C103.671758,51.9161913 103.854489,51.8446687 103.970811,51.7502501 C104.203673,51.5633754 104.471474,51.2628932 104.784416,50.8505478 C105.095622,50.4384205 105.302441,50.1379383 105.406828,49.9493192 L105.843254,49.9493192 L105.099094,52.5032002 L97.9333333,52.5032002 L98.0203581,52.0995771 C98.1490505,52.0925992 98.3142022,52.0751547 98.5227578,52.0470254 C98.7295772,52.022603 98.8704228,51.9946917 98.9416051,51.965036 C99.0841868,51.9127024 99.1903093,51.8322394 99.2649639,51.7275722 C99.3413547,51.6211605 99.3919202,51.4968681 99.4214348,51.3555673 L100.867869,45.063757 C100.876549,45.0323569 100.883494,44.9957233 100.890439,44.9553828 C100.897383,44.9135159 100.899119,44.8751379 100.899119,44.8385044 C100.899119,44.756297 100.881758,44.6830299 100.845299,44.618267 C100.814048,44.5537222 100.751329,44.4994261 100.662785,44.4540703 C100.561871,44.3999922 100.424715,44.3544183 100.24893,44.3125514 C100.069889,44.272429 99.9307792,44.2480066 99.8283461,44.2392844 L99.9205793,43.8374057 L106.6,43.8374057 L106.6,43.8365335 Z" id="Path"></path>
                    <path d="M108.776844,52.5032002 C108.152249,52.5032002 107.636034,52.4015614 107.222792,52.1962012 C106.804142,51.9927154 106.6,51.7257054 106.6,51.3953795 C106.6,51.2402138 106.659485,51.0933791 106.784089,50.9582079 C106.905087,50.8213705 107.054927,50.753056 107.231805,50.753056 C107.396066,50.753056 107.53509,50.7897126 107.637837,50.863234 C107.740809,50.9350893 107.821926,51.0183997 107.881411,51.1152481 C107.942699,51.2168869 107.997001,51.3370622 108.049276,51.477232 C108.096144,51.6174018 108.137828,51.7325785 108.170275,51.8225538 C108.231563,51.887536 108.321917,51.949394 108.433902,52.0043789 C108.544085,52.06103 108.70474,52.0893555 108.915868,52.0893555 C109.370795,52.0893555 109.715539,51.9841761 109.944692,51.7740255 C110.179253,51.5636666 110.298449,51.2802028 110.298449,50.9196769 C110.298449,50.6559993 110.186463,50.4441825 109.969928,50.2856844 C109.75159,50.1271862 109.42307,49.9820178 108.991576,49.850179 C108.832724,49.8035252 108.654043,49.7333361 108.43931,49.636696 C108.229985,49.5415138 108.06212,49.4396668 107.937516,49.3313632 C107.785874,49.2045231 107.664876,49.0576884 107.571141,48.8858606 C107.477182,48.7140328 107.432117,48.510547 107.432117,48.2785274 C107.432117,47.7797062 107.673889,47.3475332 108.152249,46.9822169 C108.63782,46.620233 109.229743,46.4365335 109.931849,46.4365335 C110.092504,46.4365335 110.272987,46.4448645 110.462484,46.4598604 C110.650178,46.4765225 110.8577,46.5181777 111.083473,46.5883668 C111.285588,46.6500165 111.449848,46.7435325 111.592478,46.865374 C111.731502,46.9872155 111.8,47.1473799 111.8,47.3408684 C111.8,47.5010327 111.742317,47.6462012 111.626727,47.7763737 C111.511136,47.9065463 111.357691,47.9715285 111.168195,47.9715285 C111.011145,47.9715285 110.884739,47.9396622 110.781992,47.8780125 C110.682624,47.8144883 110.597903,47.732844 110.531207,47.6259984 C110.464512,47.5224852 110.406604,47.4091829 110.366947,47.2890076 C110.321882,47.1690406 110.278395,47.0488653 110.227923,46.9320224 C110.148609,46.9020306 110.078083,46.8803699 110.014993,46.8687064 C109.948297,46.857043 109.866956,46.8503781 109.762406,46.8503781 C109.347361,46.8503781 109.036866,46.9536831 108.822134,47.1590433 C108.609204,47.3625291 108.506231,47.6045459 108.506231,47.8863435 C108.506231,48.1583521 108.598163,48.3651703 108.793292,48.5036739 C108.982789,48.6421775 109.300494,48.7840136 109.742803,48.9325144 C110.314897,49.1243367 110.730167,49.3413605 110.989964,49.5865014 C111.248184,49.8318507 111.374365,50.1371835 111.374365,50.4991674 C111.374365,51.0915047 111.130791,51.5736639 110.636208,51.945645 C110.146806,52.3180427 109.526042,52.5032002 108.776844,52.5032002" id="Path"></path>
                    <path d="M117.866667,48.7162496 C117.866667,49.2480345 117.779019,49.7542834 117.610166,50.2298892 C117.436627,50.7088999 117.211359,51.1213044 116.925187,51.4726357 C116.610905,51.8560995 116.26539,52.1425271 115.897817,52.3317054 C115.528877,52.517479 115.150373,52.6113234 114.760936,52.6113234 C114.443531,52.6113234 114.18703,52.5687635 113.986944,52.4868359 C113.786857,52.4032059 113.608439,52.29936 113.455202,52.1748725 L113.133112,53.7380943 C113.11281,53.836833 113.095632,53.928975 113.081577,54.0177122 C113.067523,54.1045342 113.064399,54.1745451 113.064399,54.2256169 C113.064399,54.33457 113.098756,54.4182 113.170787,54.4811886 C113.242623,54.5460923 113.324023,54.5920569 113.411671,54.6209975 C113.505565,54.6516406 113.605511,54.6754741 113.719706,54.692498 C113.833902,54.7061171 113.933848,54.7180339 114.02618,54.7265458 L113.949659,55.1032002 L110.933333,55.1032002 L111.011611,54.7265458 C111.125807,54.7180339 111.238245,54.7076067 111.339948,54.6959028 C111.438527,54.6856884 111.538473,54.6652597 111.629243,54.6361063 C111.741877,54.6020584 111.82933,54.5356651 111.898238,54.4367136 C111.965388,54.3394644 112.015556,54.2185945 112.042104,54.0753808 L113.186794,48.5881446 C113.213342,48.4381213 113.243013,48.2863956 113.265071,48.1329675 C113.293181,47.9795394 113.307236,47.8482423 113.307236,47.7358845 C113.307236,47.5143606 113.272879,47.3643373 113.208657,47.2892193 C113.144629,47.2141012 113.007009,47.1749462 112.798919,47.1749462 C112.717518,47.1749462 112.614449,47.1919701 112.490883,47.2262307 C112.367318,47.2604914 112.273619,47.2875169 112.20315,47.3079456 L112.286112,46.9261841 C112.559791,46.7899927 112.810046,46.685934 113.035118,46.6125183 C113.257263,46.5374002 113.446418,46.50165 113.601216,46.50165 C113.856156,46.50165 114.049995,46.5731505 114.181369,46.7146618 C114.312743,46.8544708 114.39551,47.0504587 114.430062,47.3026256 L114.472226,47.3026256 C114.719357,47.0502459 114.985033,46.8440437 115.268082,46.6804012 C115.548008,46.5184611 115.832618,46.4365335 116.112544,46.4365335 C116.664587,46.4365335 117.097749,46.6429486 117.405785,47.0536507 C117.711868,47.4649913 117.866667,48.0189072 117.866667,48.7162496 M116.162321,51.1791858 C116.34523,50.8536032 116.490658,50.4820561 116.587676,50.0677364 C116.69094,49.6517142 116.740913,49.210369 116.740913,48.7449775 C116.740913,48.5336681 116.720611,48.3223586 116.689378,48.109134 C116.651899,47.8961221 116.597046,47.7203501 116.520525,47.5824563 C116.442247,47.4273258 116.33137,47.3062432 116.195311,47.2211236 C116.056129,47.1360039 115.871659,47.0932313 115.647953,47.0932313 C115.4791,47.0932313 115.293068,47.1477079 115.091225,47.2585762 C114.891139,47.3711469 114.640884,47.580754 114.353151,47.8859078 L113.654117,51.2696254 C113.679104,51.4962564 113.790176,51.7077786 113.988701,51.9054689 C114.187225,52.1014568 114.42811,52.2004084 114.706474,52.2004084 C114.995769,52.2004084 115.266325,52.1082664 115.516384,51.9241952 C115.7682,51.7418265 115.983903,51.4947668 116.162321,51.1791858" id="Shape"></path>
                    <path d="M123.933333,47.6550841 C123.933333,48.0678762 123.796229,48.4239042 123.527219,48.7217072 C123.259941,49.0159625 122.867905,49.2532449 122.352627,49.427085 C121.979651,49.5625259 121.599528,49.6693761 121.21269,49.7513919 C120.829318,49.8334077 120.404143,49.9018586 119.94258,49.9552836 C119.94258,50.5705067 120.057159,51.0419411 120.296496,51.3679175 C120.5341,51.6922244 120.879568,51.8560473 121.335716,51.8560473 C121.741614,51.8560473 122.097479,51.7573362 122.408075,51.5634616 C122.713473,51.369587 123.018871,51.0786709 123.320588,50.6909217 L123.664106,50.9384301 C123.343113,51.4132036 122.935483,51.7942746 122.453127,52.0768431 C121.967305,52.3610811 121.464156,52.5032002 120.941947,52.5032002 C120.227185,52.5032002 119.677035,52.3109951 119.302327,51.9247069 C118.924153,51.5386273 118.733333,50.9901856 118.733333,50.2797992 C118.733333,49.7883303 118.811307,49.3202349 118.970937,48.8738434 C119.134033,48.427452 119.368172,48.0196685 119.67357,47.6486147 C119.972037,47.2859086 120.338082,46.9916533 120.773653,46.7708575 C121.207492,46.5486009 121.691364,46.4365335 122.21379,46.4365335 C122.796862,46.4365335 123.228752,46.5517313 123.508158,46.7808747 C123.792764,47.00814 123.933333,47.2988474 123.933333,47.6550841 M122.817655,47.5110869 C122.817655,47.3591593 122.791664,47.2402051 122.750078,47.1517198 C122.706759,47.0646954 122.645896,46.9995836 122.578318,46.9561757 C122.505543,46.9110983 122.429085,46.8810467 122.347645,46.8691513 C122.269671,46.8574646 122.186282,46.8507864 122.101377,46.8507864 C121.617289,46.8507864 121.167855,47.108312 120.758492,47.6214848 C120.345663,48.1346576 120.087049,48.7749236 119.975936,49.5406133 C120.258808,49.5003358 120.581534,49.4452412 120.937182,49.3734513 C121.29283,49.3016613 121.587832,49.2096283 121.82197,49.0908828 C122.155093,48.9253903 122.408508,48.7098118 122.569871,48.4472777 C122.73275,48.1832827 122.817655,47.8723321 122.817655,47.5110869" id="Shape"></path>
                    <path d="M126.253263,52.5032002 C125.536807,52.5032002 124.971185,52.304317 124.553326,51.9082202 C124.140728,51.5085757 123.933333,50.9436474 123.933333,50.2096788 C123.933333,49.7232185 124.012257,49.2567926 124.168571,48.8087316 C124.324884,48.3623402 124.544337,47.9662434 124.827148,47.6183544 C125.111714,47.2706741 125.468187,46.986436 125.900077,46.7658489 C126.332187,46.5467227 126.809677,46.4365335 127.338468,46.4365335 C127.923164,46.4365335 128.371058,46.5536095 128.67667,46.7908919 C128.980528,47.0267135 129.133333,47.3224296 129.133333,47.6820053 C129.133333,47.9493394 129.06844,48.1868305 128.931419,48.3890527 C128.797906,48.5914836 128.601254,48.6933251 128.335981,48.6933251 C128.114774,48.6933251 127.947938,48.6399001 127.835471,48.5361803 C127.726512,48.4293302 127.672142,48.3139237 127.672142,48.1851609 C127.672142,48.0614068 127.715989,47.8909057 127.805655,47.6753272 C127.893568,47.45954 127.963722,47.2873694 128.016339,47.1552676 C127.970738,47.0498783 127.870548,46.9730798 127.714235,46.9246633 C127.557921,46.8762468 127.394592,46.8509951 127.229509,46.8509951 C126.671122,46.8509951 126.193412,47.1602762 125.78761,47.7788383 C125.38729,48.3957308 125.185157,49.1530729 125.185157,50.0489862 C125.185157,50.6007669 125.315162,51.0419411 125.5732,51.366248 C125.8365,51.6922244 126.187931,51.8543778 126.630344,51.8543778 C127.025403,51.8543778 127.381877,51.7539971 127.689242,51.5517749 C128.000115,51.3495526 128.296957,51.0619755 128.577796,50.6907131 L128.927254,50.9365518 C128.644443,51.3610307 128.265169,51.7289541 127.776936,52.0399047 C127.294622,52.3479336 126.785342,52.5032002 126.253263,52.5032002" id="Path"></path>
                    <path d="M133.018795,51.7709788 L132.921196,52.1305464 C132.533056,52.2692597 132.22606,52.367708 131.996827,52.420858 C131.763988,52.4758199 131.563606,52.5032002 131.399289,52.5032002 C131.065245,52.5032002 130.810767,52.4258911 130.64645,52.2678505 C130.476723,52.113031 130.391972,51.9195571 130.391972,51.6906498 C130.391972,51.6034758 130.400988,51.5130806 130.41902,51.4196655 C130.431643,51.3244385 130.462297,51.206663 130.496558,51.0633191 L131.16645,48.6651279 C131.198908,48.532857 131.233169,48.392533 131.262245,48.2409348 C131.296506,48.0909472 131.312735,47.9618974 131.312735,47.8572081 C131.312735,47.6476281 131.271261,47.5071028 131.193498,47.4362361 C131.114157,47.3667788 130.955249,47.3329561 130.720381,47.3329561 C130.626389,47.3329561 130.501968,47.3474515 130.34847,47.3716106 C130.194972,47.3989909 130.081144,47.4201301 130,47.439256 L130.095795,47.0780778 C130.420824,46.9458069 130.718804,46.8491705 130.978691,46.7861556 C131.240381,46.7215301 131.446398,46.689318 131.598093,46.689318 C131.93935,46.689318 132.192024,46.7634058 132.349129,46.9101722 C132.50443,47.0569386 132.581968,47.2536338 132.581968,47.5020696 C132.581968,47.5697151 132.572952,47.6633315 132.556723,47.7794964 C132.536888,47.8956613 132.515249,48.0134368 132.480988,48.1296017 L131.809293,50.5277929 C131.769623,50.6745593 131.731756,50.8197151 131.699072,50.960039 C131.668418,51.1019736 131.652189,51.2165279 131.652189,51.3083324 C131.652189,51.5211336 131.704482,51.6679 131.8129,51.747021 C131.921318,51.8275513 132.091045,51.8664071 132.3329,51.8664071 C132.412241,51.8664071 132.526068,51.8567435 132.67596,51.8390268 C132.825626,51.8192969 132.939454,51.7951378 133.018795,51.7709788 M133.466667,44.5588899 C133.466667,44.7735031 133.388903,44.958924 133.232024,45.1201858 C133.07492,45.2782265 132.883554,45.3589581 132.652518,45.3589581 C132.437711,45.3589581 132.251756,45.2832596 132.094651,45.1298495 C131.93935,44.9782513 131.861812,44.8041046 131.861812,44.60902 C131.861812,44.4026612 131.939575,44.2220721 132.094651,44.0672527 C132.251756,43.9140439 132.437711,43.8365335 132.652518,43.8365335 C132.89257,43.8365335 133.087768,43.9092121 133.239237,44.0541665 C133.390932,44.1975104 133.466667,44.3670266 133.466667,44.5588899" id="Shape"></path>
                    <path d="M137.106251,51.5684538 L137.066326,51.5684538 C136.979615,51.6385911 136.876476,51.7273064 136.759822,51.834391 C136.641504,51.9431456 136.503223,52.0433417 136.343317,52.1420766 C136.190065,52.2389329 136.028495,52.3243083 135.848626,52.3961155 C135.672085,52.4679228 135.478908,52.5032002 135.268888,52.5032002 C134.705785,52.5032002 134.264535,52.3007205 133.946386,51.8961786 C133.623246,51.4899668 133.466667,50.9363832 133.466667,50.2339667 C133.466667,49.7507291 133.551714,49.280851 133.733247,48.8226625 C133.911452,48.3678138 134.158069,47.9582621 134.472891,47.5954687 C134.771078,47.2477046 135.125825,46.9684079 135.537339,46.7542387 C135.948853,46.5419482 136.371805,46.4365335 136.803281,46.4365335 C137.079842,46.4365335 137.344551,46.4734808 137.594495,46.546958 C137.842776,46.6206439 138.042607,46.7058106 138.185878,46.797657 L139.253653,46.5233701 L139.323521,46.6104155 L138.437278,50.3861395 C138.404008,50.5065836 138.374065,50.6554166 138.338923,50.8292986 C138.308979,51.0015107 138.29068,51.1303045 138.29068,51.2121313 C138.29068,51.4344415 138.335596,51.5849444 138.430624,51.6636401 C138.525653,51.7387872 138.680569,51.7788657 138.902026,51.7788657 C138.976884,51.7788657 139.083558,51.7671761 139.220175,51.743797 C139.355128,51.7204179 139.460138,51.6953689 139.533333,51.66698 L139.443295,52.041463 C139.093539,52.1819463 138.835277,52.2838124 138.665389,52.3474787 C138.492175,52.4092663 138.284026,52.4395339 138.040736,52.4395339 C137.760848,52.4395339 137.537728,52.359377 137.372831,52.1938446 C137.211053,52.0299822 137.121223,51.8210315 137.106251,51.5684538 M137.945707,47.8697556 C137.945707,47.7409618 137.929072,47.6190565 137.905782,47.5002824 C137.877502,47.3831781 137.820735,47.2746323 137.735895,47.1725575 C137.657709,47.0757013 137.551036,46.9986755 137.416082,46.9385578 C137.279465,46.8799013 137.107914,46.8515124 136.903093,46.8515124 C136.618214,46.8515124 136.343525,46.9450288 136.075281,47.1324791 C135.807038,47.3197206 135.563955,47.5706284 135.350608,47.8883336 C135.149114,48.1826597 134.985881,48.5421133 134.857581,48.9635633 C134.727618,49.3848045 134.662741,49.8129342 134.662741,50.2460737 C134.662741,50.483622 134.677713,50.6942426 134.705993,50.8781442 C134.730945,51.0622546 134.78605,51.2292482 134.860908,51.383091 C134.934103,51.5285841 135.04244,51.6456883 135.182384,51.7275152 C135.322328,51.8078808 135.495543,51.8496292 135.708682,51.8496292 C135.928475,51.8496292 136.156794,51.7895115 136.391559,51.6657275 C136.633186,51.5419436 136.901221,51.3263132 137.199408,51.0186276 L137.945707,47.8697556 Z" id="Shape"></path>
                    <path d="M144.733333,43.0618485 L142.809506,50.3761246 C142.770255,50.5308013 142.72904,50.685478 142.695431,50.8384192 C142.656179,50.9913604 142.640478,51.118269 142.640478,51.2137216 C142.640478,51.4447604 142.697393,51.6029081 142.811469,51.6881647 C142.931432,51.7749398 143.120086,51.8168088 143.381355,51.8168088 C143.469672,51.8168088 143.609261,51.8063958 143.790064,51.7873053 C143.966943,51.7664793 144.106532,51.7402298 144.196811,51.7141972 L144.094511,52.1016482 C143.681877,52.2476474 143.365409,52.3517775 143.139466,52.4110016 C142.917449,52.4719611 142.665992,52.5032002 142.390739,52.5032002 C142.023244,52.5032002 141.744312,52.4196791 141.555658,52.2495998 C141.363079,52.0810391 141.266667,51.8742974 141.266667,51.6274221 C141.266667,51.533488 141.278442,51.4362999 141.300031,51.3354238 C141.321619,51.2345477 141.347133,51.1059035 141.386385,50.9529624 L143.058755,44.5491743 C143.092119,44.4242181 143.11567,44.337226 143.127446,44.2886319 C143.137259,44.2400379 143.141184,44.1808138 143.141184,44.1079227 C143.141184,43.9619236 143.11567,43.8471634 143.058755,43.7690658 C143.005765,43.6890158 142.927016,43.6300087 142.822999,43.5900921 C142.726587,43.5536465 142.606869,43.5293495 142.461392,43.517201 C142.313953,43.5050525 142.160626,43.4911685 142.009506,43.4738134 L142.107881,43.1037175 L144.664643,42.9698668 L144.733333,43.0618485 Z" id="Path"></path>
                    <rect id="Rectangle" x="88.4" y="0.503200157" width="7.8" height="26.8666667"></rect>
                    <rect id="Rectangle" x="102.266667" y="0.503200157" width="7.8" height="26.8666667"></rect>
                </g>
            </g>
        </g>
    </g>
</svg>